<svg id="command-line" xmlns="http://www.w3.org/2000/svg" width="42" height="42" viewBox="0 0 42 42">
  <path id="Path_194" data-name="Path 194" d="M0,0H42V42H0Z" fill="none"/>
  <path id="Path_195" data-name="Path 195" d="M15.25,11.75h7V9.125a6.125,6.125,0,1,1,6.125,6.125H25.75v7h2.625a6.125,6.125,0,1,1-6.125,6.125V25.75h-7v2.625A6.125,6.125,0,1,1,9.125,22.25H11.75v-7H9.125A6.125,6.125,0,1,1,15.25,9.125Zm-3.5,0V9.125A2.625,2.625,0,1,0,9.125,11.75Zm0,14H9.125a2.625,2.625,0,1,0,2.625,2.625Zm14-14h2.625A2.625,2.625,0,1,0,25.75,9.125Zm0,14v2.625a2.625,2.625,0,1,0,2.625-2.625Zm-10.5-10.5v7h7v-7Z" transform="translate(2.25 2.25)" fill="#340e49"/>
</svg>
