<svg id="file-list-3-line" xmlns="http://www.w3.org/2000/svg" width="42" height="42" viewBox="0 0 42 42">
  <path id="Path_243" data-name="Path 243" d="M0,0H42V42H0Z" fill="none"/>
  <path id="Path_244" data-name="Path 244" d="M31.75,37H7.25A5.25,5.25,0,0,1,2,31.75v-28A1.75,1.75,0,0,1,3.75,2h24.5A1.75,1.75,0,0,1,30,3.75v21h7v7A5.25,5.25,0,0,1,31.75,37ZM30,28.25v3.5a1.75,1.75,0,0,0,3.5,0v-3.5ZM26.5,33.5V5.5H5.5V31.75A1.75,1.75,0,0,0,7.25,33.5ZM9,10.75H23v3.5H9Zm0,7H23v3.5H9Zm0,7h8.75v3.5H9Z" transform="translate(1.5 1.5)" fill="#340e49"/>
</svg>
