<svg xmlns="http://www.w3.org/2000/svg" width="24" height="24" viewBox="0 0 24 24">
  <g id="Group_35" data-name="Group 35" transform="translate(-987 -349)">
    <g id="Rectangle_183" data-name="Rectangle 183" transform="translate(987 349)" fill="#fff" stroke="#707070" stroke-width="1" opacity="0">
      <rect width="24" height="24" stroke="none"/>
      <rect x="0.5" y="0.5" width="23" height="23" fill="none"/>
    </g>
    <g id="graduation-cap" transform="translate(988 310.25)">
      <g id="Group_34" data-name="Group 34" transform="translate(0 41.75)">
        <path id="Path_51" data-name="Path 51" d="M22.236,46.525l-9.168-4.479a3.755,3.755,0,0,0-2.924,0L.764,46.525a1.13,1.13,0,0,0-.764,1c0,.237.105.659.764,1l.764.369v4.215A1.291,1.291,0,0,0,.711,54.3a1.308,1.308,0,0,0,.79,1.186L.316,59.25h3.32L2.45,55.483a1.276,1.276,0,0,0-.026-2.371V49.344l1.4.685v5.48a.425.425,0,0,0,.079.237,9.568,9.568,0,0,0,7.588,3.5,9.514,9.514,0,0,0,7.561-3.5.425.425,0,0,0,.079-.237V50.056l3.109-1.528a1.13,1.13,0,0,0,.764-1A1.178,1.178,0,0,0,22.236,46.525Zm-3.952,8.852a8.81,8.81,0,0,1-6.8,3.056,8.81,8.81,0,0,1-6.8-3.056V50.4l5.454,2.608a3.553,3.553,0,0,0,1.449.29,3.208,3.208,0,0,0,1.475-.316l5.216-2.556Zm3.583-7.588-3.162,1.554a.3.3,0,0,0-.29.158L12.7,52.269a2.925,2.925,0,0,1-2.213,0L3.451,48.9l8.088-.948a.41.41,0,0,0-.079-.817L2.081,48.238l-.948-.448a.531.531,0,0,1-.29-.237c0-.026.053-.132.29-.237l9.379-4.505a2.722,2.722,0,0,1,1.08-.211,2.67,2.67,0,0,1,1.107.211l9.168,4.479c.237.105.29.211.29.263A.724.724,0,0,1,21.867,47.79Z" transform="translate(0 -41.75)"/>
      </g>
    </g>
  </g>
</svg>
