<svg id="group-line" xmlns="http://www.w3.org/2000/svg" width="42" height="42" viewBox="0 0 42 42">
  <path id="Path_27" data-name="Path 27" d="M0,0H42V42H0Z" fill="none"/>
  <path id="Path_28" data-name="Path 28" d="M2,37.75a14,14,0,0,1,28,0H26.5a10.5,10.5,0,0,0-21,0ZM16,22A10.5,10.5,0,1,1,26.5,11.5,10.5,10.5,0,0,1,16,22Zm0-3.5a7,7,0,1,0-7-7A7,7,0,0,0,16,18.5Zm14.5,6.48A14,14,0,0,1,38.75,37.75h-3.5a10.5,10.5,0,0,0-6.192-9.579L30.5,24.98Zm-1.2-19.758A9.628,9.628,0,0,1,26.5,23.712V20.189A6.125,6.125,0,0,0,28.322,8.623Z" transform="translate(1.5 0.75)" fill="#340e49"/>
</svg>
