<svg id="thumb-up-line" xmlns="http://www.w3.org/2000/svg" width="42" height="42" viewBox="0 0 42 42">
  <path id="Path_61" data-name="Path 61" d="M0,0H42V42H0Z" fill="none"/>
  <path id="Path_62" data-name="Path 62" d="M24.8,13.521H36a3.5,3.5,0,0,1,3.5,3.5V20.7a3.5,3.5,0,0,1-.263,1.334L33.821,35.188A1.75,1.75,0,0,1,32.2,36.271H2.75A1.75,1.75,0,0,1,1,34.521v-17.5a1.75,1.75,0,0,1,1.75-1.75H8.844a1.75,1.75,0,0,0,1.43-.74L19.816,1.009A.875.875,0,0,1,20.922.731L24.1,2.318A4.375,4.375,0,0,1,26.38,7.311ZM11.5,18.05V32.771H31.03L36,20.7V17.021H24.8a3.5,3.5,0,0,1-3.392-4.363l1.58-6.209a.875.875,0,0,0-.457-1l-1.157-.578L13.133,16.549a5.279,5.279,0,0,1-1.633,1.5ZM8,18.771H4.5v14H8Z" transform="translate(0.75 0.479)" fill="#340e49"/>
</svg>
